# xmcd
#
# Track frame offsets: 
#        150
#        22864
#        52887
#        73347
#        90068
#        114607
#        140034
#        159450
#        185230
#        213702
#
# Disc length: 3218 seconds
#
# Revision: 0
# Processed by: cddbd v1.5.2PL0 Copyright (c) Steve Scherf et al.
# Submitted via: ExactAudioCopyFreeDBPlugin 1.0
#
DISCID=8c0c900a
DTITLE=Thu Hien - Tren dinh Phu Van
DYEAR=1900
DGENRE=
TTITLE0=Mua hoa buoi
TTITLE1=Cam xuc tu cau ho dieu vi
TTITLE2=Gieng que
TTITLE3=Nho hue
TTITLE4=Loi ru
TTITLE5=Tren dinh phu van
TTITLE6=Que nha
TTITLE7=Goi hue vao thu
TTITLE8=Lang toi
TTITLE9=Chay di song oi
EXTD=
EXTT0=
EXTT1=
EXTT2=
EXTT3=
EXTT4=
EXTT5=
EXTT6=
EXTT7=
EXTT8=
EXTT9=
PLAYORDER=
